<?xml version="1.0" encoding="UTF-8" standalone="no"?>
<svg xmlns="http://www.w3.org/2000/svg" width="1000" height="1000" version="1.1">
<circle cx="80" cy="110" r="40" fill="none" stroke="purple" stroke-width="5" />
<line x1="190" y1="80" x2="250" y2="140" stroke="purple" stroke-width="5" />
<line x1="250" y1="80" x2="190" y2="140" stroke="purple" stroke-width="5" />
<line x1="330" y1="80" x2="390" y2="140" stroke="purple" stroke-width="5" />
<line x1="390" y1="80" x2="330" y2="140" stroke="purple" stroke-width="5" />
<line x1="50" y1="220" x2="110" y2="280" stroke="purple" stroke-width="5" />
<line x1="110" y1="220" x2="50" y2="280" stroke="purple" stroke-width="5" />
<line x1="190" y1="220" x2="250" y2="280" stroke="purple" stroke-width="5" />
<line x1="250" y1="220" x2="190" y2="280" stroke="purple" stroke-width="5" />
<circle cx="80" cy="390" r="40" fill="none" stroke="purple" stroke-width="5" />
<circle cx="220" cy="390" r="40" fill="none" stroke="purple" stroke-width="5" />
<line x1="330" y1="360" x2="390" y2="420" stroke="purple" stroke-width="5" />
<line x1="390" y1="360" x2="330" y2="420" stroke="purple" stroke-width="5" />
<line x1="150" y1="100" x2="150" y2="400" stroke-width="5" stroke="purple" />
<line x1="290" y1="100" x2="290" y2="400" stroke-width="5" stroke="purple" />
<line x1="60" y1="180" x2="380" y2="180" stroke-width="5" stroke="purple" />
<line x1="60" y1="320" x2="380" y2="320" stroke-width="5" stroke="purple" />
</svg>
